<svg width="38" height="32" viewBox="0 0 38 32" fill="none" xmlns="http://www.w3.org/2000/svg">
<path d="M13.8003 28.5807C12.6112 30.693 10.3755 32 7.95144 32H0L18.7649 0L19.1407 0.643968C20.0712 2.23853 19.5542 4.25381 18.4298 5.71814C15.5837 9.42473 15.2804 14.833 17.9871 18.8017C18.4086 19.4196 18.5047 20.2242 18.1378 20.8759L13.8003 28.5807Z" fill="#7C5CFC"/>
<path d="M30.3509 23.0584C31.2337 22.7886 32.232 23.0771 32.6972 23.8744L37.4391 32H29.5783C27.1543 32 24.9186 30.693 23.7294 28.5807L19.6324 21.303C19.5287 21.1188 19.8448 20.8758 20.0082 21.0099C22.8539 23.3466 26.819 24.138 30.3509 23.0584Z" fill="#7C5CFC"/>
<path d="M22.0748 8.83295C22.5681 8.18636 23.1841 7.64347 23.8875 7.23537L24.57 8.41185C24.9616 9.08688 24.6843 9.92972 24.2188 10.5561C22.5874 12.7515 24.756 16.1891 27.3853 15.9593C28.1627 15.8913 29.0373 16.065 29.4329 16.7378L30.1223 17.9102C29.4213 18.3224 28.6458 18.5922 27.8403 18.7042C27.0348 18.8162 26.2151 18.7681 25.4282 18.5627C24.6413 18.3573 23.9027 17.9987 23.2547 17.5073C22.6067 17.016 22.062 16.4016 21.6518 15.6993C21.2417 14.9971 20.9741 14.2208 20.8645 13.415C20.7549 12.6092 20.8054 11.7896 21.0131 11.0034C21.2208 10.2171 21.5816 9.47953 22.0748 8.83295Z" fill="#7C5CFC"/>
</svg>
